<!-- Generator: visioncortex VTracer 1.0.0-alpha.4 -->
<svg version="1.1" xmlns="http://www.w3.org/2000/svg" width="1254" height="1254" viewBox="0 0 1254 1254">
<path d="M544.65,49.6c-2.86,.43-5.72,.83-8.59,1.22c-.97,.14-1.94,.27-2.94,.41c-1.88,.26-3.76,.51-5.63,.77c-.84,.11-1.68,.23-2.54,.35c-.74,.1-1.48,.2-2.24,.31C521,53,521,53,520,54c-2.9,.54-5.81,.97-8.73,1.4C508,56,508,56,504.52,57c-3.41,.97-6.71,1.57-10.21,2.13C469.1,63.58,443.64,72.27,420,82c-2.29,.93-4.59,1.86-6.88,2.8c-2.42,.98-4.83,1.97-7.24,2.95c-1.26,.51-2.52,1.02-3.77,1.54c-3.04,1.23-6.07,2.47-9.11,3.71c0,.66,0,1.32,0,2c-.89,.1-1.77,.21-2.69,.31c-3.45,.72-5.36,1.82-8.31,3.69c-1.69,.73-3.39,1.46-5.09,2.17c-17.53,7.58-34.29,17.44-50.47,27.52c-.98,.6-1.95,1.21-2.96,1.83c-6.7,4.22-13.11,8.77-19.48,13.48c-1.22,.88-2.45,1.75-3.68,2.62c-11.47,8.1-22.51,16.58-33.18,25.71c-2.96,2.53-5.98,4.98-9.01,7.42c-3.68,2.99-7.08,6.07-10.36,9.48c-1.73,1.73-3.52,3.31-5.38,4.89c-4.86,4.23-9.41,8.75-13.95,13.32c-.81,.81-1.63,1.61-2.46,2.44c-4.31,4.32-8.47,8.72-12.45,13.34c-2.08,2.42-4.24,4.75-6.4,7.09c-4.14,4.54-8.08,9.19-11.93,13.96c-1.43,1.78-2.88,3.55-4.34,5.3C178.09,264.94,166.87,281.25,156,298c-.57,.88-1.15,1.77-1.74,2.68c-20.58,31.88-37.86,66.51-50.17,102.42c-1.07,3.12-2.19,6.13-3.52,9.15c-2.23,5.11-3.83,10.44-5.51,15.75c-.35,1.12-.71,2.23-1.07,3.38C91.41,439.54,89.07,447.7,87,456c-.34,1.27-.67,2.55-1.02,3.86c-2.13,8.15-3.81,16.3-5.2,24.61c-.68,4.03-1.46,8.03-2.26,12.03c-3.49,17.62-5.84,35.26-6.36,53.21c-.13,1.92-.38,3.82-.66,5.72c-.75,5.9-.68,11.81-.7,17.75c-.01,1.27-.01,2.55-.02,3.87c-.01,2.71-.02,5.42-.02,8.13c0,2.72-.02,5.44-.04,8.16c-.14,17.5,.7,34.49,2.95,51.85c.64,5.44,.88,10.89,1.12,16.36c.36,5.84,1.35,10.91,3.21,16.45c.52,2.67,1,5.32,1.44,8c1.11,6.56,2.37,13.06,3.81,19.56c.41,1.87,.81,3.74,1.16,5.62c1.54,8.17,3.82,16.11,6.11,24.1c1.71,6.15,2.83,11.94,3.25,18.31c.31,3.27,1.3,6.26,2.23,9.41c.56,3.47,.96,6.95,1.38,10.44c1.11,8.71,2.77,17.01,5.08,25.48c.58,2.23,1.09,4.46,1.59,6.71c3.18,14.21,7.41,28.01,11.84,41.87c1.04,3.28,2.06,6.57,3.07,9.86c5.07,16.4,5.07,16.4,8.65,23.73c1.99,4.16,3.74,8.41,5.52,12.66c4.61,11.03,4.61,11.03,6.87,16.25c.15,.35,.15,.35,.92,2.13c2.31,5.31,4.86,10.45,7.58,15.56c.43,.81,.86,1.62,1.31,2.46c.92,1.73,1.84,3.46,2.77,5.19c.94,1.76,1.88,3.53,2.81,5.29c11.12,21.03,23.53,41.2,37.61,60.37c.78,1.06,1.55,2.12,2.36,3.21c2.18,2.95,4.4,5.88,6.64,8.79c.21,.27,.21,.27,1.26,1.64c13.15,17.09,27.36,33.24,42.74,48.36c2.89,2.87,5.75,5.76,8.6,8.67c6.71,6.82,13.37,13.41,20.9,19.33c2.56,2.05,4.96,4.21,7.38,6.44c5.75,5.23,11.89,9.91,18.12,14.56c.61,.45,1.21,.9,1.83,1.37c8.6,6.39,17.28,12.65,26.17,18.63c.61,.41,1.22,.82,1.85,1.25c21.32,14.32,44.4,27.91,68.15,37.75c1.62,.7,3.24,1.41,4.86,2.12c8.4,3.66,16.71,7.26,25.47,9.99c2.89,.96,5.63,2.12,8.42,3.33c6.53,2.77,13.22,4.85,20.01,6.88c2.36,.71,4.7,1.47,7.04,2.22c9.08,2.89,17.95,5.2,27.41,6.44c4.12,.54,8.07,1.32,12.09,2.38c7.95,2.05,16.01,3.37,24.11,4.69c2.64,.44,5.27,.89,7.9,1.34c27.18,4.56,54.46,6.13,81.98,6c3.62-.02,7.24-.01,10.86,.01c28.7,.12,59.03-.64,86.91-7.91c3.16-.8,6.36-1.39,9.57-1.99c.69-.13,1.38-.26,2.09-.4c4.38-.8,8.74-1.43,13.16-1.97c7.82-1.08,15.24-3.24,22.81-5.46c2.27-.66,4.54-1.28,6.83-1.9c12.7-3.42,25.2-7.36,37.5-12.02c1.97-.74,3.94-1.46,5.91-2.18c6.75-2.46,13.33-4.96,19.66-8.39c2.41-1.18,2.41-1.18,6.15-2.55c4.51-1.65,8.66-3.8,12.89-6.07c.81-.43,1.62-.87,2.46-1.31c1.75-.94,3.49-1.87,5.22-2.81c2.69-1.44,5.39-2.87,8.08-4.31c22.72-12.15,44.21-26.04,65.05-41.19c.61-.44,1.22-.88,1.84-1.34c3.17-2.33,5.98-4.79,8.72-7.6c1.29-1.04,2.61-2.06,3.94-3.06c9.98-7.68,19.36-16.01,28.58-24.57c1.96-1.82,3.95-3.6,5.93-5.39c9.05-8.22,17.96-16.71,25.89-26.03c1.96-2.3,4-4.53,6.04-6.76c4.73-5.25,9.19-10.69,13.62-16.19c.93-1.13,1.85-2.27,2.78-3.4c18.3-22.48,34.31-46.56,48.61-71.76c1.02-1.8,2.05-3.6,3.08-5.4c10.61-18.42,19.5-37.77,27.53-57.44c.33-.78,.65-1.55,.99-2.35c3.43-8.28,6.14-16.83,8.95-25.34c.77-2.33,1.55-4.67,2.32-7.01c.51-1.54,1.02-3.08,1.53-4.62c1.18-3.57,2.36-7.14,3.59-10.7c2.76-8.03,5-16.07,6.87-24.35c.5-2.2,1.01-4.4,1.52-6.59c.21-.95,.42-1.89,.65-2.87C1137,801,1137,801,1138,800c.53-2.41,1-4.82,1.44-7.25c.12-.65,.24-1.3,.37-1.97c1.61-8.76,2.92-17.57,4.05-26.4c1.61-12.46,3.58-24.49,7.21-36.54c2.31-7.67,2.31-7.67,1.93-11.84c.66,0,1.32,0,2,0c.14-.82,.28-1.63,.43-2.48c.53-3.05,1.06-6.1,1.6-9.15c.34-1.96,.68-3.93,1.02-5.89c.22-1.24,.44-2.49,.66-3.77c.2-1.14,.4-2.28,.6-3.46c.69-3.25,.69-3.25,1.71-6.27c1.82-5.52,2.25-11.3,2.98-17.04c.17-1.21,.33-2.42,.5-3.66c3.07-23.82,3.85-47.73,3.75-71.72c0-.64,0-.64-.01-3.88c-.1-43.86-.1-43.86-3.78-64.94c-.6-3.57-1.01-7.13-1.4-10.74c-3.06-26.85-3.06-26.85-7.1-38.84c-1.05-3.46-1.67-6.85-2.27-10.41c-1.26-7.36-3.17-14.5-5.19-21.69c-.15-.52-.15-.52-.9-3.19c-2.52-8.8-5.37-17.43-8.6-25.99c-.12-.34-.12-.34-.75-2.02c-1.22-3.25-2.49-6.47-3.88-9.65c-1.37-3.21-1.37-3.21-2.24-6.4c-2.25-7.61-5.55-14.81-9.18-21.85c-1.03-2.12-1.86-4.26-2.7-6.46c-2.91-7.41-6.62-14.43-10.25-21.5c-.37-.73-.75-1.47-1.13-2.22c-18.38-35.99-40.93-69.8-66.87-100.78c-.51-.61-1.02-1.21-1.54-1.84c-6.31-7.51-12.81-14.82-19.51-21.99c-1.98-2.12-3.93-4.25-5.87-6.4c-4.48-4.99-8.98-9.76-14.13-14.07c-2.21-1.92-4.22-3.98-6.26-6.07c-4.1-4.16-8.47-7.81-13.01-11.45c-2.41-1.96-4.71-3.97-6.99-6.05c-21.75-19.49-46.65-36.4-71.86-51.05c-1.31-.77-2.61-1.56-3.9-2.36c-7.89-4.87-16.12-9.02-24.37-13.22c-2.87-1.47-5.75-2.94-8.62-4.41c-.69-.35-1.38-.7-2.09-1.06c-4.88-2.51-9.7-5.11-14.47-7.81c-3.49-1.79-7.14-3.03-10.85-4.3c-2.2-.8-4.16-1.69-6.22-2.79c-20.23-10.42-43.9-16.51-65.81-22.57c-1.15-.32-2.3-.63-3.48-.96c-6.94-1.87-13.9-3.47-20.94-4.87C739,58,739,58,736.54,57c-3.2-1.26-6.33-1.82-9.72-2.44c-.69-.12-1.38-.25-2.09-.38c-1.46-.26-2.92-.52-4.38-.78c-2.18-.39-4.36-.79-6.55-1.19c-11.89-2.15-23.84-4.15-35.92-4.77c-6.41-.34-6.41-.34-9.15-.92c-14.78-2.81-30.73-1.71-45.7-1.71c-3.99,0-7.99-.02-11.98-.03c-22.38-.05-44.29,1.4-66.4,4.82Z" fill="#FDDB29"/>
<path d="M814.75,262.88c.78-.01,1.56-.01,2.36-.01C819,263,819,263,820,264c-.22,6.38-2.68,10.19-6.31,15.31c-1.1,1.6-2.2,3.19-3.3,4.79c-.56,.81-1.12,1.62-1.7,2.46c-2.66,3.84-5.23,7.74-7.81,11.63c-.9,1.35-1.8,2.69-2.7,4.04c-.48,.73-.97,1.45-1.47,2.2c-1.3,1.96-2.61,3.92-3.92,5.88c-3.96,5.93-7.91,11.87-11.86,17.82c-1.84,2.77-3.69,5.55-5.53,8.33c-.94,1.4-1.87,2.81-2.8,4.21c-2.73,4.12-5.48,8.24-8.25,12.33c-.91,1.34-1.81,2.69-2.71,4.03c-1.3,1.95-2.62,3.88-3.95,5.81c-.39,.58-.77,1.16-1.17,1.76c-4.26,6.09-9.49,7.6-16.5,9.16c-.67,.15-1.33,.3-2.02,.46c-2.21,.5-4.42,.98-6.62,1.47c-1.59,.35-3.17,.71-4.75,1.06c-4.09,.92-8.19,1.83-12.28,2.73c-3.54,.78-7.09,1.57-10.63,2.36c-4.95,1.11-9.9,2.21-14.85,3.3c-12.91,2.86-25.82,5.74-38.73,8.63c-2.51,.56-5.01,1.12-7.52,1.68c-13.72,3.05-27.4,6.19-41.05,9.49c-8.05,1.95-16.11,3.76-24.19,5.5c-2.73,.59-5.46,1.18-8.19,1.77c-.68,.15-1.36,.3-2.06,.45c-21.15,4.6-42.24,9.48-63.27,14.64c-1.77,.43-3.53,.86-5.31,1.29c-9.74,2.36-15.62,6.16-21.55,14.41c-5.1,9.32-6.37,21.44-8.37,31.75c-.44,2.21-.88,4.41-1.31,6.62c-.22,1.1-.44,2.21-.67,3.35c-2.9,14.58-6.03,29.1-9.28,43.6c-1.98,8.86-3.88,17.73-5.74,26.62c-3.02,14.31-6.17,28.59-9.36,42.86c-.61,2.74-1.22,5.49-1.83,8.23c-.44,1.96-.88,3.91-1.32,5.87c-4.32,19.4-4.32,19.4-1.1,26.28c2.06,2.61,3.83,3.77,6.98,4.82c5.94,.29,11.14-.45,16.91-1.79c.83-.19,1.66-.38,2.52-.57c2.69-.6,5.38-1.21,8.07-1.83c2.8-.63,5.6-1.25,8.4-1.88c1.85-.41,3.69-.83,5.53-1.24c6.72-1.51,13.45-2.94,20.2-4.31c8.48-1.74,16.93-3.63,25.37-5.57c18.86-4.31,37.81-8.17,56.75-12.1c7.44-1.54,14.88-3.11,22.31-4.71c1.03-.22,2.06-.44,3.11-.67c5.39-1.15,10.78-2.32,16.16-3.5C676.41,594.66,676.41,594.66,697,593c1.5-.15,2.99-.3,4.49-.45c9.07-.84,9.07-.84,12.51,1.45c.68,5.63-.96,9.87-3,15c-.27,.69-.54,1.38-.82,2.09c-.56,1.42-1.12,2.84-1.68,4.25c-3.04,7.71-5.84,15.44-8.36,23.33c-1.21,3.53-2.65,6.9-4.14,10.33c-.97,2.52-1.93,5.03-2.87,7.56c-.26,.69-.52,1.38-.79,2.09c-1.7,4.58-3.35,9.18-4.96,13.79c-2.97,8.26-2.97,8.26-4.32,11.62c-.25,.65-.51,1.3-.77,1.98c-3.36,5.13-6.94,7.11-12.77,8.47c-2.09,.41-4.18,.8-6.27,1.18c-1.03,.2-2.07,.4-3.13,.6c-2.06,.4-4.12,.78-6.18,1.16c-4.32,.81-8.63,1.67-12.94,2.55c-.41,.08-.41,.08-2.46,.5c-2.43,.49-4.86,1-7.29,1.5c-.81,.17-1.62,.33-2.46,.5c-4.38,.91-8.55,2.03-12.79,3.5c-7.48,1.94-15,3.42-22.64,4.57C591,711,591,711,589,712c-1.59,.29-3.19,.54-4.79,.78c-8.65,1.4-17.21,3.26-25.78,5.11c-2.88,.61-5.77,1.22-8.65,1.83c-1.84,.4-3.68,.79-5.53,1.19c-.42,.09-.42,.09-2.59,.54c-4.08,.89-7.81,1.91-11.66,3.55c-2.46,.49-4.9,.92-7.37,1.31c-10.97,1.84-21.79,4.27-32.63,6.69c-3.58,.8-7.17,1.6-10.75,2.39c-2.31,.52-4.63,1.04-6.94,1.55c-5.55,1.25-11.11,2.44-16.69,3.53c-5.38,1.08-10.75,2.25-16.12,3.41c-1.24,.26-2.48,.52-3.75,.79c-5.3,1.13-10.59,2.26-15.84,3.61c-22.37,5.71-41.94,3.16-61.91-8.28c-18.49-11.17-34.08-29.47-41-50c-.37-1.05-.73-2.1-1.11-3.18c-1.14-4.88-1.18-9.46-1.14-14.44c-.01-.93-.02-1.86-.02-2.82c0-.9,0-1.8,0-2.72c.01-.81,.01-1.62,.01-2.46c.3-2.74,1.23-4.82,2.26-7.38c.45-2.29,.85-4.59,1.21-6.89c2.16-13,5.16-25.82,8.01-38.68c1.42-6.43,2.83-12.86,4.25-19.29c.15-.71,.31-1.41,.47-2.13c1.92-8.76,3.82-17.52,5.65-26.3c.19-.89,.38-1.78,.57-2.7c.82-3.95,1.64-7.91,2.44-11.87c1.33-6.46,2.75-12.81,4.81-19.09c.61-2.11,.92-4.11,1.15-6.3c.44-3.75,.44-3.75,1.4-6.61c1.01-3.04,1.63-5.92,2.15-9.08c.2-1.13,.39-2.26,.59-3.43c.2-1.2,.4-2.4,.61-3.63c2.38-13.71,5.2-27.27,8.65-40.75c1.06-4.24,1.93-8.5,2.77-12.78c.33-1.63,.67-3.27,1-4.9c.51-2.52,1.01-5.04,1.51-7.57c6.24-31.75,21.52-58.91,48.51-77.65c15.41-10.26,32.73-15.73,50.78-19.23c6.27-1.25,12.46-2.78,18.66-4.31c13.83-3.36,27.71-6.54,41.61-9.65c6.37-1.42,12.74-2.85,19.11-4.28c53.29-11.96,53.29-11.96,79.59-17.75c5.64-1.25,11.28-2.54,16.91-3.84c31.56-7.28,63.23-14.04,94.96-20.54c3.23-.67,6.46-1.34,9.7-2.02c19.24-4.03,38.51-7.75,57.87-11.18c1.94-.35,3.88-.72,5.82-1.11c2.37-.47,4.57-.57,6.99-.56Z" fill="#FDF5C2"/>
<path d="M882,435c3.51,2.49,6.77,5.17,10,8c.92,.79,1.84,1.57,2.78,2.38c14.67,12.87,27.99,30.14,29.4,50.16c.79,14.21-.85,26.95-4.46,40.66c-1.26,4.92-2.33,9.89-3.41,14.86c-.21,.97-.42,1.94-.64,2.94c-1.3,6.04-2.36,12.06-3.21,18.17c-.65,3.99-1.66,7.85-2.67,11.75c-2.42,9.46-4.2,19.03-5.79,28.66c-.89,5.31-.89,5.31-2,6.42c-.35,1.63-.65,3.26-.93,4.9c-.97,5.58-2.09,11.12-3.26,16.66c-.44,2.09-.87,4.18-1.31,6.27c-.12,.57-.12,.57-.72,3.43c-1.34,6.42-2.68,12.83-4,19.25c-.31,1.47-.62,2.95-.92,4.42c-1.63,7.82-3.15,15.63-4.42,23.51c-.58,3.36-1.38,6.64-2.25,9.94c-1.22,4.67-2.37,9.35-3.39,14.08c-4.14,19.19-9.84,35.39-22.8,50.54c-.6,.75-1.21,1.5-1.83,2.27c-19.24,23.09-48.33,31.67-76.48,38.04c-1.73,.4-3.45,.79-5.18,1.19c-11.44,2.61-22.91,5.14-34.38,7.62c-8.49,1.84-16.94,3.76-25.38,5.82c-10.35,2.52-20.73,4.88-31.12,7.19c-.78,.17-1.56,.34-2.36,.52c-9.74,2.16-19.48,4.29-29.26,6.25c-4.9,.99-4.9,.99-6.01,2.1c-2.38,.5-4.75,.94-7.14,1.36c-7.91,1.44-15.76,3.09-23.61,4.83c-1.37,.3-2.74,.6-4.11,.9c-12.12,2.67-24.23,5.37-36.35,8.07c-8.95,1.99-17.91,3.96-26.88,5.9c-11.6,2.51-23.18,5.1-34.76,7.68c-1.45,.32-2.9,.65-4.36,.97c-2.91,.65-5.83,1.3-8.74,1.96c-4.11,.94-7.82,1.74-12.05,1.33c-.66-.66-1.32-1.32-2-2c.21-7.95,2.77-14.98,5.38-22.44c.8-2.33,1.6-4.66,2.39-6.99c.19-.56,.19-.56,1.16-3.38c1.23-3.66,2.35-7.34,3.44-11.05c1.6-5.44,3.49-10.77,5.46-16.09c1.52-4.18,2.93-8.37,4.28-12.6c.36-1.11,.73-2.22,1.1-3.37c.74-2.27,1.46-4.56,2.17-6.85c.37-1.1,.73-2.21,1.11-3.34c.31-.99,.63-1.98,.95-3c2.35-4.36,5.86-7.75,10.48-9.7c2.06-.57,4.12-1.01,6.23-1.41c.78-.16,1.56-.33,2.37-.5c2.57-.54,5.16-1.05,7.74-1.56c1.83-.38,3.66-.76,5.5-1.14c3.82-.8,7.65-1.6,11.48-2.38c8.18-1.69,16.33-3.52,24.47-5.36c3.57-.8,7.14-1.6,10.71-2.39c2.69-.6,5.38-1.21,8.07-1.81c4.5-1.01,9.01-2.01,13.52-3.02c18.39-4.11,36.78-8.25,55.15-12.46c10.22-2.34,20.44-4.65,30.7-6.84c2.22-.48,4.45-.96,6.67-1.44c6.54-1.42,13.07-2.82,19.63-4.09c1.93-.37,3.86-.76,5.79-1.14c2.31-.45,4.61-.89,6.92-1.31c9.51-1.9,18.84-5.66,24.69-13.71c4.98-8.04,6.49-17.84,8.38-26.94c.26-1.23,.52-2.46,.78-3.72c1.74-8.24,3.42-16.48,4.99-24.75c.81-4.22,1.93-8.14,3.29-12.22c.52-2.54,1-5.07,1.44-7.62c.86-4.85,1.81-9.62,3.06-14.38c1.13-4.33,2.02-8.66,2.81-13.06c1.52-8.43,3.4-16.78,5.28-25.13c1.95-8.72,3.85-17.45,5.72-26.18c.26-1.19,.51-2.38,.77-3.61c1.31-6.09,1.31-6.09,1.92-9.02c.18-.86,.36-1.72,.55-2.61c1.57-8.38,1.57-8.38-.56-12.2c-2.15-2.69-3.7-4.09-6.99-5.19c-9.35-.7-17.88,.7-26.94,2.88c-1.18,.26-2.36,.53-3.57,.81c-8.53,1.98-8.53,1.98-12.5,3.35c-3,.96-5.79,1.46-8.91,1.87c-6.83,1-13.51,2.45-20.22,4.03c-3.78,.89-7.56,1.76-11.34,2.63c-.82,.19-1.63,.38-2.48,.58c-12.25,2.83-24.54,5.56-36.81,8.3c-9.96,2.23-19.91,4.45-29.84,6.78c-.68,.16-1.35,.32-2.05,.48c-3.66,.86-7.29,1.81-10.9,2.85c-4.78,1.34-9.6,2.23-14.48,3.11c-13.85,2.54-27.57,5.94-41.21,9.39c-6.37,1.6-12.74,3.18-19.12,4.69c-.91,.22-1.81,.45-2.74,.68c-5.98,1.39-11.75,2.14-17.89,1.57c-1-1-1-1-1.31-3.87c.07-4.29,1.52-7.79,3.07-11.74c1.35-3.69,2.45-7.42,3.52-11.2c2.57-8.9,5.54-17.63,8.6-26.38c5.93-17.03,5.93-17.03,8.25-24.72c.3-1,.6-2.01,.91-3.04c.54-1.79,1.05-3.59,1.55-5.39c1.79-6.01,4.57-11.48,10.21-14.68c3.4-1.38,6.85-2.14,10.44-2.83c7.43-1.46,14.81-3.13,22.2-4.77c.78-.18,1.57-.35,2.37-.53c12.92-2.88,25.83-5.81,38.73-8.77c12.3-2.82,24.62-5.59,36.94-8.35c9.27-2.08,18.54-4.18,27.77-6.42c11.7-2.82,23.47-5.3,35.25-7.78c2.82-.6,5.64-1.19,8.47-1.79c1.06-.23,2.13-.45,3.23-.69c2.25-.47,4.5-.95,6.75-1.42c5.65-1.2,11.31-2.39,16.96-3.58c11.45-2.42,22.9-4.86,34.34-7.37c25.43-5.57,47.06-6.09,69.75,8.32Z" fill="#FDF5C2"/>
<path d="M1144,749c.33,0,.66,0,1,0c-1.87,27.9-1.87,27.9-5.35,40.46c-.58,2.28-.93,4.4-1.15,6.73c-.39,2.95-.84,5.01-1.81,7.75c-1.43,4.02-2.36,8.02-3.25,12.19c-4.81,21.48-12.83,42.53-20.44,63.14c-.69,1.88-1.37,3.76-2.04,5.64c-1.81,5.06-3.71,9.98-6.02,14.84c-.29,.61-.59,1.22-.89,1.86c-.65,1.37-1.31,2.74-1.96,4.11c-1.2,2.51-2.36,5.02-3.53,7.55c-6.05,12.98-12.69,25.51-19.91,37.89c-1.64,2.82-3.26,5.64-4.87,8.47c-7.27,12.63-15.23,24.58-23.78,36.37c-.58,.81-1.16,1.61-1.75,2.44c-10.37,14.43-21.31,28.34-33.32,41.45c-1.8,1.97-3.56,3.97-5.3,5.99c-10.51,12.02-21.36,23.98-33.55,34.32c-2.16,1.87-4.26,3.8-6.35,5.74c-8.35,7.75-16.92,15.05-26.44,21.36c-2.29,1.7-2.29,1.7-4.58,4.03c-3.34,3.29-6.96,5.95-10.77,8.67c-.79,.56-1.58,1.13-2.39,1.71c-22.33,15.86-45.8,29.59-70.21,42c-.32,.16-.32,.16-1.96,1c-1.77,.9-3.54,1.79-5.32,2.69c-2.75,1.44-5.39,3-8.06,4.6c-1.75,.69-3.53,1.34-5.31,1.94c-3.32,1.12-6.39,2.39-9.49,4c-4.25,2.17-8.59,3.64-13.14,5.06c-4.64,1.46-9.14,2.98-13.56,5.01c-4.43,2.02-8.9,3.5-13.56,4.87c-.84,.24-1.68,.49-2.54,.75c-8.18,2.39-16.43,4.45-24.7,6.45c-.98,.24-1.95,.48-2.96,.72c-.43,.1-.43,.1-2.63,.63C750,1202,750,1202,748,1203c-2.85,.49-5.7,.95-8.56,1.38c-6.53,1-13.06,2.04-19.56,3.18c-.34,.06-.34,.06-2.01,.35c-3.43,.61-6.83,1.3-10.23,2.09c-26.14,5.88-53.39,6.36-80.06,6.32c-2.95-.01-5.9,0-8.85,.02c-29.46,.18-58.37-1.76-87.42-6.87c-3.09-.55-6.19-1.07-9.29-1.6c-2.01-.34-4.02-.68-6.03-1.03c-.91-.16-1.82-.31-2.75-.47c-4.86-.86-9.51-1.97-14.24-3.37c-1.37-.25-2.75-.47-4.14-.64c-12.08-1.61-23.29-4.56-34.86-8.36c-1.11-.36-2.21-.72-3.35-1.09c-11.34-3.69-22.62-7.37-33.65-11.91c-1.87-.75-3.74-1.5-5.61-2.25c-1.9-.77-3.8-1.54-5.7-2.31c-.96-.39-1.93-.77-2.92-1.17c-7.2-2.93-7.2-2.93-10.31-4.8c-2.35-1.4-4.56-2.33-7.1-3.32c-5.57-2.17-10.82-4.8-16.11-7.59c-.99-.52-1.98-1.04-3-1.57c-15.94-8.46-31.43-17.69-46.25-27.99c-.35-.24-.35-.24-2.14-1.48c-8.11-5.64-16.13-11.36-23.86-17.52c-1.1-.85-2.2-1.7-3.3-2.55c-6.31-4.89-12.42-9.88-18.29-15.29c-2.46-2.21-5.01-4.24-7.6-6.28c-6.89-5.57-13.01-11.91-19.2-18.24c-3.42-3.48-6.89-6.91-10.35-10.35c-1.38-1.37-2.76-2.73-4.13-4.1c-.35-.34-.35-.34-2.07-2.04c-4.57-4.55-8.88-9.25-13.06-14.15c-.23-.27-.23-.27-1.42-1.64c-6.82-7.9-13.32-16.01-19.58-24.36c-.54-.71-1.07-1.42-1.62-2.15C191.1,998.86,183.24,987.7,176,976c-.24-.38-.24-.38-1.44-2.33c-8-12.97-15.38-26.24-22.56-39.67c-.44-.81-.87-1.62-1.32-2.46c-2.28-4.26-4.54-8.53-6.78-12.81c-.79-1.52-1.59-3.03-2.39-4.54c-2.75-5.32-4.95-10.75-7.05-16.35c-2.11-5.6-4.37-11.14-6.61-16.69c-11.89-29.59-20.89-60.55-27.33-91.77c-.48-2.19-1.02-4.36-1.59-6.53c-.96-3.96-1.57-7.82-2.05-11.85c-.05-.33-.05-.33-.27-2c-.57-4.7-.68-9.27-.61-14c2.03,3.05,3.05,5.67,4.25,9.13c.21,.6,.43,1.21,.65,1.84c1.21,3.44,2.4,6.89,3.58,10.35c2.5,7.21,5.09,14.22,8.37,21.13c1.23,2.72,2.23,5.48,3.21,8.3c1.57,4.46,3.52,8.2,5.94,12.25c.74,1.72,1.48,3.44,2.2,5.16c1.21,2.8,2.6,5.49,3.99,8.2c.3,.58,.59,1.16,.9,1.76c.97,1.88,1.94,3.76,2.91,5.63c.33,.65,.67,1.29,1.01,1.96c19.22,37.01,42.12,73.92,70.62,104.58c2,2.29,3.85,4.61,5.69,7.03c3.42,4.42,7.08,8.51,10.93,12.56c.68,.71,1.35,1.42,2.05,2.16c5.5,5.76,11.08,11.44,16.7,17.09c.39,.39,.39,.39,2.35,2.36c4.72,4.71,9.57,9.19,14.65,13.51c.27,.23,.27,.23,1.65,1.41c3.22,2.75,6.47,5.48,9.71,8.21c1.51,1.27,3.01,2.56,4.51,3.85c7.99,6.82,16.42,12.92,24.98,18.99c1.92,1.38,3.84,2.77,5.75,4.17c9.5,6.94,19.39,13.19,29.4,19.37c.63,.4,1.27,.79,1.92,1.2c8.32,5.17,16.85,9.93,25.46,14.61c.5,.28,.5,.28,3.06,1.67c5.08,2.75,10.18,5.31,15.48,7.6c3.35,1.48,6.58,3.18,9.83,4.86c5.91,3,11.85,5.6,18.09,7.86c2.49,.94,4.88,1.96,7.3,3.06c5.49,2.46,11.1,4.59,16.74,6.7c1.01,.39,2.02,.77,3.06,1.17c5.8,2.18,11.58,4.06,17.59,5.57c2.58,.73,4.99,1.69,7.47,2.7c1.3,.41,2.62,.79,3.93,1.15c.73,.2,1.45,.4,2.2,.6c.76,.21,1.52,.41,2.31,.63c5.44,1.48,10.85,3.02,16.25,4.68c7.21,2.1,14.55,3.3,21.97,4.46c5.47,.88,10.61,2.12,15.9,3.78c4.03,1.15,8.11,1.72,12.25,2.26c.46,.06,.46,.06,2.77,.38c47.73,6.3,96.58,7.34,144.45,2.27c3.13-.33,6.25-.63,9.38-.94c10.87-1.11,21.4-2.62,31.98-5.37c3.23-.8,6.39-1.4,9.67-1.9c5.27-.82,10.41-2.04,15.57-3.38c4.65-1.21,9.32-2.28,14.01-3.32c9.69-2.22,19.09-5.25,28.52-8.36c2.86-.95,5.73-1.88,8.59-2.81c1.86-.6,3.71-1.21,5.56-1.82c.84-.27,1.68-.54,2.55-.82c4.85-1.61,9.5-3.45,14.14-5.6c4.14-1.85,8.47-3.19,12.77-4.64c3.01-1.16,5.51-2.53,8.23-4.25c2.33-1.03,4.65-2.02,7-3c30.86-13.27,59.56-30.73,87-50c.29-.2,.29-.2,1.76-1.22C950.8,1026,964.47,1015.67,977,1004c1.33-1.17,2.66-2.34,4-3.5c3.87-3.37,7.68-6.8,11.48-10.24c1.63-1.46,3.26-2.9,4.91-4.33c4.22-3.66,8-7.4,11.6-11.66c2.55-2.88,5.27-5.57,8.01-8.27c4.55-4.5,8.88-9.1,13-14c.87-1.02,1.75-2.04,2.62-3.06c5.29-6.2,10.44-12.46,15.38-18.94c.96-1.25,1.93-2.49,2.89-3.73c16.61-21.47,31.37-43.88,45.11-67.27c.4-.68,.81-1.37,1.23-2.07c5.53-9.4,10.35-19.07,14.97-28.95c1.88-4.02,3.75-7.99,6-11.82c1.63-2.86,2.77-5.49,3.8-8.6c1.14-3.26,2.31-6.33,3.94-9.37c2.45-4.68,4.09-9.64,5.81-14.63c1.84-5.23,3.81-10.41,5.79-15.6c.12-.33,.12-.33,.76-2.01c.51-1.35,1.02-2.69,1.54-4.04c1.61-4.26,2.97-8.52,4.16-12.91Z" fill="#FDC113"/>
<path d="M623.56,84.81c.57,0,.57,0,3.45,0c33.11,0,33.11,0,49.49,2.63c10.26,1.57,10.26,1.57,14.63,1.99c15.07,1.47,30.34,4.4,44.86,8.71c2.88,.82,5.61,1.29,8.57,1.67c5.96,.95,11.32,2.79,16.96,4.9c5.42,2,10.95,3.62,16.48,5.29c3.25,.99,6.5,1.99,9.75,3c.78,.24,1.56,.47,2.36,.72c4.8,1.49,9.34,3.28,13.9,5.37c2.3,1.05,4.63,1.99,6.99,2.91c4.74,1.84,9.37,3.91,14,6c.52,.24,.52,.24,3.17,1.43c21.9,9.92,42.66,21.04,63.14,33.7c1.04,.63,2.08,1.27,3.15,1.93c.96,.6,1.92,1.2,2.9,1.82c.85,.53,1.7,1.06,2.57,1.61C902,170,902,170,904,173c-3.86-.64-7.21-1.79-10.81-3.31c-.49-.21-.49-.21-2.96-1.24c-2.39-1.07-4.7-2.19-7.02-3.4c-4.45-2.24-9.03-3.94-13.71-5.61c-1.61-.59-3.23-1.17-4.84-1.76c-.4-.14-.4-.14-2.38-.85c-2.12-.77-4.23-1.56-6.34-2.37c-4.12-1.54-8.27-2.95-12.44-4.33c-.39-.13-.39-.13-2.35-.78c-2.38-.79-4.77-1.57-7.15-2.35c-.37-.12-.37-.12-2.23-.73c-7.14-2.33-14.22-4.61-21.66-5.81c-2.11-.46-2.11-.46-4.37-1.4c-5.12-1.98-10.56-2.84-15.93-3.93c-1.29-.27-2.58-.53-3.9-.81c-11.57-2.34-23.18-4.25-34.86-5.89c-2.93-.41-5.85-.84-8.76-1.27c-49.29-7.05-107.51-8.92-156.1,4.34c-2.93,.67-5.89,1.04-8.87,1.43c-6.93,.95-13.61,2.4-20.38,4.13c-1.19,.3-2.39,.61-3.62,.92c-13.59,3.51-26.96,7.7-40.32,12.02c-.51,.16-.51,.16-3.07,.99c-11.17,3.59-22.1,7.5-32.93,12.01c-1,.4-2,.79-3.02,1.2c-6.31,2.54-12.4,5.44-18.45,8.52c-3.72,1.9-7.47,3.73-11.27,5.46c-36.44,16.62-70.95,40.11-101.7,65.7c-1.7,1.41-3.42,2.8-5.15,4.18c-12.78,10.21-24.32,21.75-35.91,33.26c-1.23,1.23-2.47,2.46-3.71,3.68c-7.42,7.35-14.3,14.81-20.79,23c-1.47,1.73-2.95,3.43-4.45,5.13c-6.97,7.96-13.32,16.33-19.55,24.87c-.42,.58-.85,1.15-1.29,1.75C232.9,365.3,217.29,392.72,203,421c-.55,1.09-1.11,2.19-1.68,3.31c-.53,1.06-1.06,2.12-1.61,3.21c-.48,.94-.95,1.89-1.45,2.86c-1.52,3.16-2.82,6.36-4.07,9.62c-.96,2.43-1.97,4.82-3,7.21c-4.36,10.1-8.19,20.23-11.52,30.71c-1.76,5.5-3.61,10.95-5.64,16.36c-2.19,5.99-3.9,12.06-5.53,18.22c-.3,1.13-.6,2.26-.91,3.43c-3.39,12.85-6.22,25.77-8.2,38.92C159,557,159,557,158,559c-1.62,8.14-2.4,16.42-3.16,24.68c-.43,4.59-.93,9.15-1.59,13.71c-2.34,16.57-2.65,32.96-2.51,49.66c.02,2.81,.02,5.61,.02,8.42c.01,3.39,.02,6.77,.04,10.16c0,.62,0,.62,.01,3.77c.05,5.64,.23,11.04,1.19,16.6c.12,2.37,.23,4.75,.31,7.13C154.18,731.46,163.17,770.6,175,807c.36,1.11,.72,2.22,1.09,3.36c5.5,16.95,11.18,33.63,18.79,49.77c1.87,4.03,2.82,7.43,3.12,11.87c-.66,0-1.32,0-2,0c-1.71-2.32-3.27-4.63-4.81-7.06c-.48-.75-.96-1.51-1.46-2.28c-5.76-9.13-11.05-18.54-16.26-28c-.9-1.63-1.8-3.25-2.71-4.88c-9.23-16.48-16.99-34.02-23.9-51.59c-.79-2.01-1.6-4-2.42-5.99c-2.79-6.8-5.29-13.57-7.38-20.62c-1.3-4.38-2.68-8.73-4.06-13.08c-.52-1.64-1.03-3.27-1.55-4.91c-.87-2.77-1.76-5.54-2.65-8.31c-.35-1.08-.69-2.16-1.05-3.28c-.15-.45-.15-.45-.89-2.75c-.98-3.71-1.63-7.43-2.3-11.21c-.57-3.1-1.23-6.18-1.93-9.25c-5.32-23.66-8.79-47.27-10.4-71.46c-.23-2.33-.23-2.33-.75-4.5c-.73-4.27-.62-8.51-.61-12.83c0-.99-.01-1.97-.01-2.98c0-3.2,.01-6.39,.02-9.58c0-1.09,0-2.18,0-3.3c.02-7.38,.06-14.76,.12-22.14c.01-.79,.01-1.59,.02-2.4c.16-17.84,1.94-35.03,4.98-52.6c.2-1.19,.4-2.37,.61-3.6c6.15-36.05,6.15-36.05,10.39-50.4c.52-1.79,1.03-3.58,1.55-5.37c9.67-33.36,9.67-33.36,13.38-41.15c1.12-2.61,2.03-5.25,2.93-7.94c4.11-12.27,9.57-23.87,15.14-35.54c.47-.98,.93-1.97,1.41-2.98c10.47-21.94,22.65-43.1,36.59-63.02c.39-.56,.78-1.12,1.18-1.69c11.97-17.21,24.75-33.94,39.05-49.29c1.97-2.12,3.86-4.3,5.73-6.5c5.09-5.84,10.61-11.24,16.09-16.7c1.88-1.88,3.76-3.76,5.64-5.64c5.93-5.94,11.87-11.79,18.31-17.18c.99-.86,1.97-1.71,2.99-2.6c17.12-14.64,35.12-28.12,54.01-40.4c.64-.42,1.28-.84,1.94-1.27c10.14-6.64,20.52-12.79,31.12-18.67c1.13-.62,2.26-1.25,3.42-1.9c16.8-9.24,16.8-9.24,23.83-11.78c3.24-1.21,5.77-2.58,8.69-4.38c2.32-1.03,4.65-2.03,7-3c.31-.14,.31-.14,1.86-.86c3.37-1.53,5.35-2.14,9.14-2.14c0-.66,0-1.32,0-2c.73-.23,1.45-.46,2.2-.7c5.16-1.67,10.21-3.43,15.18-5.61c15.06-6.35,30.95-10.42,46.75-14.5c.74-.2,1.49-.39,2.26-.59c23.38-6.07,23.38-6.07,33.61-5.6c0-.66,0-1.32,0-2c31.93-5.28,63.21-7.16,95.56-7.19Z" fill="#FDC012"/>
<path d="M919,475c4.46,4.16,7.91,8.79,11.44,13.75c.54,.76,1.09,1.52,1.66,2.3c1.65,2.31,3.28,4.63,4.9,6.95c.54,.77,1.08,1.54,1.64,2.34c3.03,4.41,5.4,8.65,7.36,13.66c.51,1.13,1.01,2.27,1.54,3.44c6.38,14.89,9.87,33.1,4.32,48.77c-1.15,3.72-1.78,7.46-2.42,11.29c-.07,.37-.07,.37-.38,2.24c-.25,1.43-.49,2.87-.73,4.31c-1.74,10.26-1.74,10.26-3.33,14.83c-1.29,4.01-1.84,8.05-2.44,12.22c-.56,2.9-.56,2.9-1.52,5.18c-1.16,3.02-1.74,5.89-2.29,9.08c-.22,1.2-.43,2.39-.65,3.63c-.22,1.24-.44,2.48-.66,3.76c-.44,2.47-.88,4.95-1.32,7.42c-.19,1.1-.38,2.19-.58,3.32C935,646,935,646,934,647c-.66,3.27-1.24,6.55-1.81,9.83c-.75,4.22-1.83,8.1-3.19,12.17c-.4,2.26-.75,4.54-1.06,6.81c-.83,6.08-.83,6.08-1.94,7.19c-.49,2.83-.95,5.66-1.37,8.5c-.91,5.76-1.95,11.15-4.01,16.63c-.67,2.01-.95,3.88-1.18,6c-.44,3.85-1.33,7.15-2.44,10.87c-1.6,5.92-3.02,11.8-3.94,17.88c-.88,5.6-2.37,10.88-4.01,16.3c-.75,2.72-1.35,5.29-1.85,8.04c-3.04,16.77-10.53,31.32-22.2,43.78c-.62,.7-1.24,1.4-1.88,2.12c-5.6,6.01-12.3,10.38-19.12,14.88c-.52,.35-.52,.35-3.12,2.14c-7.12,4.6-14.99,6.44-23.14,8.36c-4.23,1.03-7.74,2.32-11.52,4.43c-3.16,1.52-6.45,2.58-9.78,3.63c-1.24,.4-2.48,.79-3.76,1.19c-5.15,1.47-10.4,2.42-15.66,3.44c-6.58,1.3-13.11,2.85-19.64,4.37c-1.34,.31-2.67,.62-4.01,.92c-.63,.15-.63,.15-3.85,.9c-1.13,.26-2.27,.53-3.44,.8c-2.81,.75-5.38,1.72-8.08,2.82c-2.5,.49-4.98,.92-7.5,1.31c-16.58,2.76-33.03,7-49.14,11.77c-2.65,.72-5.02,1.23-7.73,1.48C690,876,690,876,689,877c-2.06,.41-4.12,.77-6.19,1.13c-8.54,1.51-16.99,3.46-25.43,5.43c-.67,.16-1.33,.31-2.02,.47c-1.92,.44-3.85,.9-5.77,1.35c-1.13,.26-2.25,.53-3.41,.8c-3.12,.8-6.13,1.8-9.18,2.82c-2.28,.42-4.58,.8-6.87,1.13c-1.16,.16-2.31,.33-3.5,.5c-.87,.12-1.73,.25-2.63,.37c.49,.72,.97,1.43,1.47,2.17c2.46,4.55,2.16,8.79,1.53,13.83c-.75,2.32-1.69,4.38-2.79,6.55c-1.45,2.94-2.57,5.94-3.71,9.01c-1.37,3.61-2.75,7.1-4.56,10.5c-2.19,4.17-3.51,8.54-4.95,13.01c-1.09,3.24-2.42,6.28-3.86,9.38c-1.19,2.68-2.27,5.39-3.35,8.12c-7.37,18.76-7.37,18.76-13.78,22.43c-4.38,1.45-8.84,2.35-13.36,3.26c-1.31,.28-2.63,.56-3.94,.84c-3.44,.73-6.89,1.45-10.34,2.15c-3.49,.72-6.97,1.46-10.45,2.2c-10.62,2.24-21.26,4.43-31.91,6.55c-1.67,.33-3.33,.67-5,1c-10,2-10,2-12.48,2.49c-1.74,.35-3.49,.71-5.24,1.07c-.44,.09-.44,.09-2.67,.55c-.8,.16-1.59,.32-2.41,.49c-6.09,1.1-9.88,.49-15.2-2.6c-7.8-7.36-14.89-16.01-19-26c0-.66,0-1.32,0-2c7.21-1.61,14.42-3.22,21.63-4.81c1.09-.25,2.19-.49,3.33-.74c13.34-2.95,26.7-5.82,40.1-8.52c.61-.13,.61-.13,3.71-.75c5.95-1.2,11.9-2.39,17.86-3.56c2.18-.44,4.36-.87,6.53-1.31c.49-.09,.49-.09,2.98-.57c14.2-2.85,14.2-2.85,17.42-6.5c.25-.64,.5-1.28,.76-1.93c.3-.71,.59-1.41,.9-2.14c.25-.72,.51-1.43,.78-2.17c.25-.65,.49-1.3,.75-1.97c.72-1.98,1.4-3.97,2.06-5.97c3.73-10.86,8.01-21.47,12.88-31.87c2.15-4.65,3.78-9.38,5.33-14.26c1.21-3.62,2.69-7.1,4.25-10.58c.89-2.86,.85-5.37,.73-8.35c-1.98,.14-3.96,.29-5.94,.44c-1.1,.08-2.2,.16-3.34,.24C588,871,588,871,587,872c-1.95,.31-3.91,.57-5.87,.81c-6.1,.84-12.11,1.92-18.13,3.19c-.8,.17-1.6,.33-2.43,.5c-3.21,.69-6.28,1.4-9.38,2.5c-3.85,1.21-7.66,1.77-11.64,2.4c-4.01,.68-8,1.49-11.98,2.33c-.74,.15-1.47,.3-2.22,.46c-3.04,.64-6.07,1.28-9.11,1.93c-2.24,.48-4.49,.95-6.74,1.42c-.68,.15-1.36,.29-2.06,.44c-3.51,.74-6.85,1.42-10.44,1.02c-2.24-2.41-2.24-2.41-4.31-5.5c-.7-1.02-1.4-2.04-2.12-3.09c-.52-.8-1.03-1.59-1.57-2.41c4.54-2.35,8.94-4.11,13.96-5.11c.96-.2,1.91-.39,2.89-.59c1.02-.2,2.04-.4,3.09-.61c7.98-1.63,15.94-3.3,23.87-5.13c1.84-.42,3.67-.84,5.51-1.26c.93-.21,1.86-.43,2.81-.65c13.33-3.04,26.68-5.98,40.05-8.82c.89-.19,1.78-.38,2.7-.58c.9-.19,1.8-.38,2.73-.58c.46-.09,.46-.09,2.75-.58c1.84-.39,3.68-.78,5.51-1.17c11.94-2.54,23.84-5.17,35.67-8.16c3.89-.97,7.68-1.85,11.67-2.29c3.8-.47,7.13-1.37,10.79-2.47c15.1-3.91,30.35-7.19,45.59-10.45c11.63-2.49,23.21-5.1,34.78-7.83c10.78-2.54,21.58-4.98,32.38-7.41c.42-.09,.42-.09,2.52-.56c7.24-1.63,14.48-3.26,21.73-4.85c.4-.09,.4-.09,2.46-.54c1.53-.34,3.06-.68,4.6-1.01c18.21-4.02,34.59-12.47,48.94-24.35c.35-.27,.35-.27,2.12-1.62c23.91-19.21,29.91-48.77,35.4-77.28C884,702,884,702,885,700c.33-1.77,.63-3.54,.9-5.31c1.07-6.59,2.32-13.14,3.63-19.68c.24-1.19,.47-2.38,.72-3.61c.49-2.49,.99-4.98,1.49-7.47c.76-3.81,1.52-7.63,2.27-11.44c.49-2.43,.97-4.86,1.46-7.29c.22-1.14,.45-2.27,.68-3.44c1.01-5.05,2.08-9.91,3.85-14.76c.34-2.12,.34-2.12,.5-4c.27-2.48,.62-4.36,1.44-6.75c.96-2.95,1.49-5.62,1.97-8.68c1.03-6.34,2.27-12.61,3.59-18.88c.21-1.03,.43-2.07,.64-3.13c1.1-5.26,2.38-10.39,3.86-15.56c.47-2.47,.9-4.95,1.31-7.44c1.25-7.32,2.68-14.6,4.19-21.87c.11-.53,.11-.53,.65-3.17c1.03-4.93,2.17-9.72,3.66-14.52c3.53-13.58,2.22-29.7-1.81-43c-.35-1.66-.69-3.33-1-5Z" fill="#FABD11"/>
<path d="M743,1123c0,26.33,0,52.67,0,79c1.65,0,3.3,0,5,0c0,.33,0,.66,0,1c-1.17,.18-2.35,.36-3.56,.55c-8.2,1.28-16.39,2.58-24.56,4.01c-.67,.12-1.33,.23-2.01,.35c-3.43,.61-6.83,1.3-10.23,2.09c-26.14,5.88-53.39,6.36-80.06,6.32c-2.95-.01-5.9,0-8.85,.02c-29.46,.18-58.37-1.76-87.42-6.87c-3.09-.55-6.19-1.07-9.29-1.6c-2.01-.34-4.02-.68-6.03-1.03c-.91-.16-1.82-.31-2.75-.47c-4.86-.86-9.51-1.95-14.24-3.37c-1.64-.26-3.29-.47-4.94-.62c-.77-.08-1.54-.15-2.34-.23c-.28-.03-.28-.03-1.72-.15c0-.33,0-.66,0-1c1.65,0,3.3,0,5,0c0-25.67,0-51.33,0-77c6.14,0,9.38,.15,14.94,1.75c17.91,4.81,36.59,6.95,55.06,8.25c.63,.05,.63,.05,3.81,.27c37.14,2.61,74.17,2.86,111.22-1.06c3.13-.33,6.25-.63,9.38-.94c10.85-1.11,21.37-2.61,31.93-5.36c4.45-1.11,8.9-1.85,13.44-2.52c7.85-1.39,7.85-1.39,8.22-1.39Z" fill="#FDD81B"/>
<path d="M715,596c9.52,4.34,17.1,11.25,21,21c.33,.33,.66,.66,1,1c.16,2.97,.23,5.9,.25,8.88c.01,.4,.01,.4,.06,2.45c.08,12.5-5.13,24.27-9.18,35.92c-1.05,3-2.08,6.01-3.12,9.02c-.26,.73-.51,1.46-.77,2.22c-2.09,6.05-4.12,12.12-6.14,18.19c-3.96,11.92-8.22,23.97-19.1,31.32c-2.8,.76-2.8,.76-5.75,1.13c-5.17,.67-10.17,1.71-15.25,2.87c-3.27,.72-6.54,1.42-9.81,2.13c-.42,.09-.42,.09-2.52,.55c-.81,.17-1.61,.34-2.44,.52c-.72,.15-1.44,.31-2.17,.46C659,734,659,734,655,734c0,.66,0,1.32,0,2c-.83,.11-1.67,.22-2.53,.33c-10.31,1.45-10.31,1.45-14.66,3.11c-4.24,1.54-8.55,2.25-13,2.94c-14.28,2.23-28.37,5.35-42.11,9.85c-2.62,.75-5.05,1.14-7.76,1.4c-3.94,.37-3.94,.37-5.78,1.33c-2.84,1.37-5.49,1.64-8.6,2.04c-4.22,.55-7.63,1.42-11.56,3c-2.07,.39-4.16,.72-6.25,1c-3.97,.57-7.85,1.2-11.75,2.13c-3.07,.72-5.83,1.07-9,.87c0,.66,0,1.32,0,2c-.3,.04-.3,.04-1.84,.26c-6.66,1.07-12.93,2.79-19.32,4.89c-6.16,2.01-12.3,3.88-18.78,4.41c-3.96,.34-3.96,.34-5.06,1.44c-1.78,.42-3.56,.78-5.36,1.12c-1.09,.21-2.19,.43-3.32,.65c-2.32,.44-4.64,.88-6.95,1.33c-.56,.1-.56,.1-3.35,.65c-1.01,.19-2.02,.38-3.06,.58c-3.07,.7-5.98,1.65-8.96,2.67c-9.47,2.11-18.85,3.29-28.56,3.38c-.41,0-.41,0-2.45,.04c-5.07-.04-9.26-.92-14.01-2.69c-1.98-.73-1.98-.73-5.54-1.67c-4.08-1.26-7.69-3.05-11.44-5.06c0-.66,0-1.32,0-2c-.55-.09-1.1-.18-1.67-.27C365.58,770.5,352.87,750.81,344,737c-.82-1.26-1.64-2.51-2.46-3.77c-.83-1.26-1.65-2.53-2.48-3.79c-.19-.3-.19-.3-1.18-1.81c-1.64-2.53-2.92-4.75-3.88-7.63c3.87,1.56,6.07,4.03,8.88,7.06c12.91,13.36,31.27,22.82,50.01,23.42c13.15,.1,25.22-2.56,37.94-5.71c4.56-1.11,9.14-2.07,13.73-3.02c.72-.15,1.44-.3,2.18-.46c2.79-.58,5.59-1.16,8.39-1.71c7.72-1.51,15.39-3.22,23.07-4.93c2.33-.52,4.67-1.04,7-1.55c7.65-1.7,15.28-3.44,22.9-5.26c5.55-1.32,11.08-2.5,16.71-3.4c5.66-.92,11.14-2.15,16.7-3.56c6.26-1.58,12.56-3.02,18.85-4.47c1.56-.36,3.11-.72,4.67-1.08c14.61-3.41,14.61-3.41,20.24-3.95c3.4-.35,5.64-1.04,8.73-2.38c1.97-.37,3.95-.67,5.94-.94c9.52-1.37,18.83-3.37,28.06-6.06c9.62-2.34,19.29-4.32,29.02-6.11c2.07-.4,4.15-.8,6.23-1.2c1.05-.19,2.1-.38,3.18-.57c6.22-1.23,10.31-2.3,14.57-7.12c1.5-3.13,1.5-3.13,2.56-6.56c1.47-4.5,2.98-8.86,4.88-13.19c2.48-5.81,4.47-11.75,6.42-17.76c1.35-4.15,2.77-8.25,4.32-12.33c1.65-4.37,3.23-8.77,4.82-13.16c6.74-18.6,6.74-18.6,9.19-24c.17-.38,.17-.38,1.04-2.31c.25-.56,.51-1.12,.77-1.69Z" fill="#FABD10"/>
<path d="M1144,749c.33,0,.66,0,1,0c-1.87,27.9-1.87,27.9-5.35,40.46c-.58,2.28-.93,4.4-1.15,6.73c-.39,2.95-.84,5.01-1.81,7.75c-1.43,4.02-2.36,8.02-3.25,12.19c-4.81,21.48-12.83,42.53-20.44,63.14c-.69,1.88-1.37,3.76-2.04,5.64c-1.81,5.06-3.71,9.98-6.02,14.84c-.15,.31-.15,.31-.89,1.86c-.65,1.37-1.31,2.74-1.96,4.11c-1.2,2.51-2.36,5.02-3.53,7.55c-6.05,12.98-12.69,25.51-19.91,37.89c-1.64,2.82-3.26,5.64-4.87,8.47c-7.27,12.63-15.23,24.58-23.78,36.37c-.29,.4-.29,.4-1.75,2.44c-10.37,14.43-21.31,28.34-33.32,41.45c-1.8,1.97-3.56,3.97-5.3,5.99c-10.51,12.02-21.36,23.98-33.55,34.32c-2.16,1.87-4.26,3.8-6.35,5.74C944.88,1109,944.88,1109,940,1109c0-24.33,0-48.67,0-73c-.66-.33-1.32-.66-2-1c.52-.38,1.04-.75,1.57-1.14c19.36-14.12,19.36-14.12,28.43-21.86c.28-.24,.28-.24,1.7-1.45c7.43-6.33,14.73-12.78,21.86-19.44c2.89-2.69,5.81-5.31,8.82-7.86c3.18-2.75,5.86-5.74,8.57-8.95c2.57-2.89,5.3-5.59,8.05-8.3c4.55-4.5,8.88-9.1,13-14c.87-1.02,1.75-2.04,2.62-3.06c5.29-6.2,10.44-12.46,15.38-18.94c.96-1.25,1.93-2.49,2.89-3.73c16.61-21.47,31.37-43.88,45.11-67.27c.4-.68,.81-1.37,1.23-2.07c5.53-9.4,10.35-19.07,14.97-28.95c1.88-4.02,3.75-7.99,6-11.82c1.63-2.86,2.77-5.49,3.8-8.6c1.14-3.26,2.31-6.33,3.94-9.37c2.45-4.68,4.09-9.64,5.81-14.63c1.84-5.23,3.81-10.41,5.79-15.6c.25-.66,.5-1.32,.76-2.01c.51-1.35,1.02-2.69,1.54-4.04c1.61-4.26,2.97-8.52,4.16-12.91Z" fill="#FDD71B"/>
<path d="M96,755c2.03,3.05,3.05,5.67,4.25,9.13c.21,.6,.43,1.21,.65,1.84c1.21,3.44,2.4,6.89,3.58,10.35c2.5,7.21,5.09,14.22,8.37,21.13c1.23,2.72,2.23,5.48,3.21,8.3c1.57,4.46,3.52,8.2,5.94,12.25c.74,1.72,1.48,3.44,2.2,5.16c1.21,2.8,2.6,5.49,3.99,8.2c.3,.58,.59,1.16,.9,1.76c.97,1.88,1.94,3.76,2.91,5.63c.33,.65,.67,1.29,1.01,1.96c19.22,37.01,42.12,73.92,70.62,104.58c2,2.29,3.85,4.61,5.69,7.03c3.42,4.42,7.08,8.51,10.93,12.56c.68,.71,1.35,1.42,2.05,2.16c5.5,5.76,11.08,11.44,16.7,17.09c.39,.39,.39,.39,2.35,2.36c4.72,4.71,9.57,9.19,14.65,13.51c.27,.23,.27,.23,1.65,1.41c3.22,2.75,6.47,5.48,9.71,8.21c1.51,1.27,3.01,2.56,4.51,3.85c6.8,5.8,13.88,11.07,21.16,16.24c.38,.26,.38,.26,2.26,1.6c.67,.47,1.33,.94,2.02,1.43C299,1034,299,1034,301,1036c-.66,0-1.32,0-2,0c0,24.33,0,48.67,0,73c-18.06-9.03-34.98-27.74-49-42c-2.9-2.91-5.82-5.81-8.74-8.71c-1.38-1.37-2.76-2.73-4.13-4.1c-.35-.34-.35-.34-2.07-2.04c-4.57-4.55-8.88-9.25-13.06-14.15c-.23-.27-.23-.27-1.42-1.64c-6.82-7.9-13.32-16.01-19.58-24.36c-.54-.71-1.07-1.42-1.62-2.15C191.1,998.86,183.24,987.7,176,976c-.24-.38-.24-.38-1.44-2.33c-8-12.97-15.38-26.24-22.56-39.67c-.44-.81-.87-1.62-1.32-2.46c-2.28-4.26-4.54-8.53-6.78-12.81c-.79-1.52-1.59-3.03-2.39-4.54c-2.75-5.32-4.95-10.75-7.05-16.35c-2.11-5.6-4.37-11.14-6.61-16.69c-11.89-29.59-20.89-60.55-27.33-91.77c-.48-2.19-1.02-4.36-1.59-6.53c-.96-3.96-1.57-7.82-2.05-11.85c-.05-.33-.05-.33-.27-2c-.57-4.7-.68-9.27-.61-14Z" fill="#FDD81B"/>
<path d="M600,869c1,1,1,1,1.05,2.9c-.44,6.14-2.02,10.75-4.73,16.26c-1.33,2.87-2.31,5.7-3.26,8.72c-1.37,4.28-2.99,8.26-4.93,12.31c-2.42,5.06-4.38,10.14-6.19,15.44c-2,5.81-4.13,11.45-6.8,17C574,944,574,944,573.08,946.34c-1.71,4.12-2.47,5.39-6.74,7.27c-3.94,1.35-7.91,2.27-12,3.08c-.36,.07-.36,.07-2.2,.44c-1.58,.32-3.15,.63-4.73,.94c-4.31,.86-8.63,1.73-12.94,2.6c-.45,.09-.45,.09-2.77,.56c-11.29,2.28-22.56,4.68-33.82,7.08c-2,.43-4,.85-6,1.28c-1.9,.4-3.8,.81-5.7,1.21c-.9,.19-1.8,.38-2.73,.58c-5.96,1.28-11.88,2.64-17.79,4.13c-2.98,.55-5.64,.71-8.66,.49c-2-2-2-2-2.32-5.04c.39-4.85,1.79-8.81,3.51-13.33c2.28-6.25,4.44-12.48,6.25-18.88c2.87-10.13,6.25-20.09,9.66-30.05c.58-1.74,1.13-3.48,1.63-5.24c1.48-5.01,2.82-8.36,7.27-11.46c3.57-1.17,7.18-1.77,10.88-2.37c2.24-.41,4.48-.82,6.73-1.24c.59-.1,.59-.1,3.61-.66c3.96-.77,7.9-1.63,11.83-2.53c.68-.16,1.36-.31,2.05-.47c3.31-.77,6.61-1.54,9.91-2.32c7.27-1.68,14.46-3,21.86-3.89c3.21-.53,6.06-1.45,9.13-2.52c3.08-.78,6.2-1.41,9.31-2.06c.81-.18,1.61-.35,2.44-.53c4.74-.99,9.43-1.72,14.26-2.16c1.99-.25,1.99-.25,5.68-1.31c3.29-.94,5.91-1.18,9.31-.94Z" fill="#FDF4C0"/>
<path d="M800,530c3.08,2.91,3.95,4.28,4.23,8.55c-.11,4.93-1.1,9.6-2.17,14.39c-.18,.86-.36,1.72-.55,2.61c-1.37,6.31-1.37,6.31-2.51,7.45c-3.09,.58-6.2,1.03-9.31,1.5C787,565,787,565,786,566c-1.37,.19-2.75,.33-4.13,.44c-15.74,1.45-31.11,4.13-46.62,7.12c-1.05,.2-2.11,.41-3.19,.61c-3.04,.59-6.07,1.18-9.11,1.77c-.91,.18-1.83,.36-2.77,.54c-4.53,.9-8.82,1.98-13.18,3.52c-2.34,.34-2.34,.34-4.5,.5c-2.76,.26-4.85,.62-7.5,1.5c-3.41,1.14-6.58,1.46-10.14,1.75C683,584,683,584,682,585c-2.33,.33-4.66,.61-7,.88c-4.25,.51-8.35,1.04-12.37,2.56c-4.14,1.55-8.35,2.28-12.69,3c-6.42,1.06-12.67,2.43-18.97,4.07c-6.1,1.58-12.24,2.71-18.45,3.78c-3.3,.67-6.33,1.64-9.52,2.71c-1.81,.33-3.62,.62-5.44,.88c-6.22,.97-12.16,2.53-18.21,4.22c-7.44,2-16.33,4.02-23.69,.91c-8.67-6.1-14.44-15.48-18.66-25.01c13.73-3.74,27.53-7.01,41.4-10.17c3.8-.88,7.6-1.77,11.4-2.66c.66-.16,1.32-.31,2-.47c3.18-.75,6.36-1.5,9.54-2.25c7.35-1.73,14.73-3.28,22.15-4.74c4.87-.99,9.69-2.14,14.51-3.33c11-2.68,22.03-5.27,33.06-7.82c.83-.19,1.66-.38,2.52-.58c12.91-2.98,25.84-5.85,38.78-8.66c6.82-1.47,13.61-2.99,20.39-4.63c5.49-1.32,10.95-2.34,16.52-3.2c2.66-.48,5.19-1.12,7.79-1.86c33.29-9.4,33.29-9.4,42.94-2.63Z" fill="#FABA0D"/>
<path d="M96,755c2.15,3.23,3.27,6.22,4.56,9.88c.44,1.21,.87,2.42,1.32,3.67c.92,2.83,1.62,5.52,2.12,8.45c-.99,.66-1.98,1.32-3,2c-.69,3.13-.69,3.13-1,6c-.33,0-.66,0-1,0c-.51-3.5-1.01-7-1.5-10.5c-.14-.98-.29-1.96-.43-2.98c-.78-5.57-1.23-10.89-1.07-16.52Z" fill="#FDD92B"/>
<path d="M1144,749c.33,0,.66,0,1,0c-.51,7.53-1.16,15.05-1.94,22.56c-.07,.78-.15,1.55-.22,2.35c-.4,3.73-.81,6.88-2.84,10.09c.01-.84,.02-1.69,.04-2.55c0-1.1,.01-2.2,.02-3.32c.01-1.1,.03-2.19,.04-3.31c-.1-2.82-.1-2.82-1.1-4.82c-.66,.33-1.32,.66-2,1c2.16-7.39,4.53-14.7,7-22Z" fill="#FDDD36"/>
<path d="M198,870c2,2,2,2,2,5c.66,0,1.32,0,2,0c1.32,2.97,2.64,5.94,4,9c-3.58-1.19-4.18-2.24-6.25-5.31c-.54-.78-1.08-1.56-1.64-2.37C197,874,197,874,197.33,871.71c.22-.57,.44-1.13,.67-1.71Z" fill="#FDC81E"/>
<path d="M392,748c.99,.14,1.98,.29,3,.44c3.99,.57,8,1.07,12,1.56c0,.33,0,.66,0,1c-7,0-14,0-21,0c0-.33,0-.66,0-1c1.98-.33,3.96-.66,6-1c0-.33,0-.66,0-1Z" fill="#FCEC9F"/>
<path d="M1166,559c2.03,3.35,2.22,5.87,2.13,9.75c-.02,.98-.04,1.97-.06,2.98c-.02,.75-.05,1.5-.07,2.27c-2.19-2.37-2.99-3.52-3.07-6.8c.06-.48,.06-.48,.38-2.95c.06-.49,.06-.49,.37-2.98c.1-.75,.21-1.5,.32-2.27Z" fill="#FEEE6F"/>
<path d="M456,964c.83,2.89,1,4.89,1,8c.99,0,1.98,0,3,0c0,.66,0,1.32,0,2c.99,.66,1.98,1.32,3,2c-2.87,.13-2.87,.13-6,0c-2-2-2-2-2.19-5.44C455,967,455,967,456,964Z" fill="#FDEF9F"/>
<path d="M1147,440c1.72,2.59,2.45,4.04,3.19,6.94c.18,.67,.36,1.34,.54,2.02c.3,2.29-.04,3.86-.73,6.04c-2.68-5.36-3.32-9.01-3-15Z" fill="#FDF38C"/>
<path d="M1144,749c.33,0,.66,0,1,0c-.33,4.33-.67,8.67-1,13c-.99,0-1.98,0-3,0c.31-1.79,.62-3.58,.94-5.37c.17-1,.35-2,.52-3.03c.54-2.6,.54-2.6,1.54-4.6Z" fill="#FDD825"/>
<path d="M705,621c.99,.33,1.98,.66,3,1c-.62,1.48-1.24,2.96-1.87,4.44c-.35,.82-.7,1.64-1.06,2.49C704,631,704,631,702,632c1-3.67,2-7.33,3-11Z" fill="#F7C22E"/>
<path d="M569,876c-9.96,3.48-9.96,3.48-13.15,2.02c-.61-.34-1.22-.67-1.85-1.02c1.75-.36,3.5-.72,5.25-1.06c.49-.1,.49-.1,2.95-.6c2.67-.32,4.29-.2,6.8,.66Z" fill="#FCE895"/>
<path d="M334,720c3.8,1.49,5.61,3.76,8,7c-3.15-.34-4.61-.58-6.81-2.94C334,722,334,722,334,720Z" fill="#FCC32E"/>
<path d="M771,272c-4.83,2.69-8.61,3.39-14,2c0-.33,0-.66,0-1c1.58-.37,3.16-.72,4.75-1.06c.88-.2,1.76-.4,2.67-.6c2.57-.34,4.15-.15,6.58,.66Z" fill="#FDEF9A"/>
<path d="M476,737c-.99,0-1.98,0-3,0c-.33,.99-.66,1.98-1,3c-1.94-.37-1.94-.37-4-1c-.33-.66-.66-1.32-1-2c3.38-.84,5.67-1.11,9,0Z" fill="#F7C328"/>
<path d="M582,873c-4.12,2-7.45,2.18-12,2c4.1-2.73,7.26-3.58,12-2Z" fill="#FCE48C"/>
<path d="M883,707c1.04,3.4,1.3,6.46,1,10c-1.52,1.68-1.52,1.68-3,3c.14-1.6,.29-3.21,.44-4.81c.08-.9,.16-1.79,.24-2.71C882,710,882,710,883,707Z" fill="#F9CC43"/>
<path d="M668,695c-4.12,2-7.45,2.18-12,2c4.1-2.73,7.26-3.58,12-2Z" fill="#FACE45"/>
</svg>
