<svg viewBox="0 0 520 520" fill="none" aria-hidden="true">
    <path d="M433.217 126.998c-96.04-36.015-250.362-36.027-346.433 0C37.269 145.565 10 171.492 10 200v130c0 19.91 13.405 47.898 77.269 68.171 91.551 29.063 253.34 29.244 345.462 0C496.595 377.898 510 349.91 510 330V200c0-28.508-27.269-54.435-76.783-73.002M93.806 145.724c91.542-34.329 240.849-34.327 332.388 0C466.744 160.93 490 180.713 490 200s-23.256 39.07-63.806 54.276c-91.544 34.328-240.849 34.327-332.388 0C53.257 239.07 30 219.288 30 200c0-19.287 23.257-39.07 63.806-54.276M490 330c0 18.706-22.487 36.146-63.32 49.108C384.239 392.581 325.045 400 260 400s-124.239-7.419-166.68-20.892C52.488 366.146 30 348.706 30 330v-89.604c.113.107 2.241 2.052 2.426 2.215.231.205 2.416 2.071 2.654 2.268.244.202 2.548 2.045 2.796 2.237.484.375.99.745 1.486 1.118 1.91 1.432.93.721 3.006 2.187 1.953 1.378 1.07.774 3.156 2.16 12.572 8.347 27.13 15.128 41.258 20.422 119.441 44.79 320.115 32.314 395.336-25.884.251-.194 2.557-2.039 2.798-2.238a379 379 0 0 0 2.655-2.269c.174-.154 2.29-2.086 2.427-2.216V330z" fill="currentColor"/>
    <path d="M260 260c51.39 0 103.049-5.443 141.732-14.933C447.031 233.955 470 218.792 470 200c0-5.523-4.478-10-10-10s-10 4.477-10 10c0 3.277-9.743 15.023-53.032 25.643C359.775 234.767 309.854 240 260 240c-5.523 0-10 4.477-10 10s4.477 10 10 10" fill="currentColor"/>
</svg>
