<svg xmlns="http://www.w3.org/2000/svg" viewBox="0 0 316 204" width="316" height="204"><defs><clipPath id="frame"><rect width="316" height="204"/></clipPath></defs><g clip-path="url(#frame)"><rect width="316" height="204" fill="#17181E"/><path d="M330 24H220V180H330M330 64H270V140H330M220 70A40 40 0 0 0 220 134" stroke="#2BD46A" stroke-opacity="0.45" stroke-width="3" fill="none"></path><svg x="204" y="7" width="190" height="190" viewBox="0 0 200 200"><defs><clipPath id="f3-fb"><circle cx="100" cy="100" r="90"></circle></clipPath></defs><circle cx="100" cy="100" r="90" fill="#ffffff"></circle><g clip-path="url(#f3-fb)" fill="#141519"><polygon points="100,72 126.6,91.3 116.5,122.7 83.5,122.7 73.4,91.3"></polygon><polygon points="100,2 126,20 116,46 84,46 74,20"></polygon><polygon points="182,72 205,90 196,118 168,112 162,86"></polygon><polygon points="18,72 38,86 32,112 4,118 -5,90"></polygon><polygon points="150,170 174,160 186,184 166,206 140,196"></polygon><polygon points="50,170 60,196 34,206 14,184 26,160"></polygon></g><path d="M100 72V46M126.6 91.3L162 86M116.5 122.7L150 170M83.5 122.7L50 170M73.4 91.3L38 86" stroke="#141519" stroke-width="3" fill="none"></path><circle cx="100" cy="100" r="89" fill="none" stroke="#2BD46A" stroke-width="3"></circle></svg></g></svg>